<svg xmlns="http://www.w3.org/2000/svg" width="480" height="640" viewBox="0 0 480 640"><rect width="480" height="640" fill="#fff"/><ellipse cx="240" cy="600" rx="125" ry="12" fill="#eef1f4"/><path d="M174 78 L130 110 L153 203 L163 352 L144 570 L224 584 L240 448 L256 584 L336 570 L317 352 L327 203 L350 110 L306 78 Q240 107 174 78Z" fill="#245bad" stroke="#192a40" stroke-width="5"/><path d="M175 90 Q240 175 305 90" fill="none" stroke="#15213a" stroke-width="15"/><path d="M130 110 Q185 226 163 352 M350 110 Q295 226 317 352" fill="none" stroke="#15213a" stroke-width="15"/><path d="M158 317 L240 353 L322 317 M155 339 L240 378 L325 339" fill="none" stroke="#f2f4f7" stroke-width="12"/><path d="M151 560 L224 573 M257 573 L330 560" stroke="#15213a" stroke-width="13"/><path d="M240 448 L240 380" stroke="#15213a" stroke-width="4"/><text x="240" y="39" font-family="Arial,sans-serif" font-size="22" font-weight="bold" text-anchor="middle" fill="#192a40">AZUL · DELANTERO</text><text x="240" y="625" font-family="Arial,sans-serif" font-size="15" text-anchor="middle" fill="#55675d">Diseño base · personalizable</text></svg>